<svg xmlns="http://www.w3.org/2000/svg" xml:space="preserve" width="2000" height="160" viewBox="0 0 2000 160" data-version="1" data-id="lg_0e2b6JTNpvj7Ls8WqR"><g id="outer-wrapper" data-padding="20" transform="matrix(1,0,0,1,0,0)"><g id="inner-wrapper" transform="matrix(0.9642857142857143,0,0,0.9642857142857143,10,2.857142857142861)"><rect width="560" height="160.46" x="346.6666666666665" y="-432.23" fill="none" rx="0" ry="0" transform="translate(400 432)"></rect><g transform="translate(152.08 424.71)"><linearGradient id="a" x1="-.035" x2="7.969" y1="0" y2="0" gradientUnits="objectBoundingBox" x="0" y="0"><stop offset="0%" stop-color="#6ee2f5"></stop><stop offset="100%" stop-color="#6454f0"></stop></linearGradient><path fill="url(#a)" d="M807.1466666666665 124.60999999999996H792.7866666666665Q785.9266666666665 124.60999999999996 779.8966666666665 122.00999999999993T769.3166666666665 114.86999999999995Q764.7766666666665 110.31999999999994 762.1766666666665 104.28999999999996T759.5766666666665 91.39999999999998V69.34999999999997H750.3566666666666V50.48999999999995H759.5766666666665V20.809999999999945H778.4366666666665V50.48999999999995H807.1466666666665V69.34999999999997H778.4366666666665V91.39999999999998Q778.4366666666665 94.38 779.5466666666665 96.97999999999996T782.5966666666666 101.51999999999998T787.1766666666665 104.59999999999997Q789.8066666666666 105.74999999999994 792.7866666666666 105.74999999999994H807.1466666666665Z " transform="translate(-152.08 -424.71)"></path></g><g transform="translate(221.62 438.75)"><linearGradient id="b" x1="-.864" x2="5.649" y1="0" y2="0" gradientUnits="objectBoundingBox" x="0" y="0"><stop offset="0%" stop-color="#6ee2f5"></stop><stop offset="100%" stop-color="#6454f0"></stop></linearGradient><path fill="url(#b)" d="M882.7866666666666 63.660000000000025L847.2866666666666 106.44000000000005Q848.3966666666666 106.79000000000008 849.5066666666667 106.89000000000004Q850.6166666666667 107.00000000000006 851.7266666666667 107.00000000000006Q854.4966666666667 107.00000000000006 857.0666666666666 106.23000000000008Q859.6266666666667 105.47000000000008 861.8866666666667 104.05000000000007Q864.1366666666667 102.63000000000005 865.9066666666666 100.58000000000004Q867.6766666666666 98.54000000000002 868.7866666666666 96.04000000000002L882.6466666666666 109.98000000000002Q880.0166666666667 113.72000000000003 876.5866666666666 116.70000000000005Q873.1466666666666 119.69000000000005 869.1666666666666 121.77000000000004Q865.1766666666666 123.85000000000002 860.7766666666666 124.92000000000002T851.7266666666667 125.99000000000001Q843.8866666666667 125.99000000000001 836.9966666666667 123.07999999999998Q830.0966666666666 120.16999999999996 824.9266666666666 114.96999999999997Q819.7666666666667 109.76999999999998 816.7766666666666 102.58999999999997Q813.7966666666666 95.41999999999996 813.7966666666666 86.82Q813.7966666666666 78.00999999999999 816.7766666666666 70.73000000000002Q819.7666666666667 63.450000000000045 824.9266666666666 58.31999999999999Q830.0966666666666 53.19 836.9966666666667 50.349999999999966Q843.8866666666667 47.50999999999999 851.7266666666667 47.50999999999999Q856.3766666666667 47.50999999999999 860.8066666666666 48.620000000000005Q865.2466666666667 49.73000000000002 869.2366666666667 51.81Q873.2166666666667 53.889999999999986 876.6866666666666 56.89999999999998Q880.1566666666666 59.91999999999996 882.7866666666666 63.65999999999997M834.9466666666666 96.66999999999996L856.9966666666667 67.40999999999997Q855.6766666666666 66.91999999999996 854.3966666666666 66.77999999999997T851.7266666666667 66.63999999999999Q847.8466666666667 66.63999999999999 844.4066666666666 68.06Q840.9766666666667 69.49000000000001 838.4466666666667 72.12Q835.9166666666666 74.75999999999999 834.4666666666667 78.45999999999998Q833.0066666666667 82.16999999999996 833.0066666666667 86.82Q833.0066666666667 87.86000000000001 833.1066666666667 89.18Q833.2166666666667 90.49000000000001 833.4566666666667 91.85000000000002Q833.6966666666667 93.20000000000005 834.0466666666666 94.45000000000005Q834.3966666666666 95.69000000000005 834.9466666666667 96.67000000000007 " transform="translate(-221.63 -438.75)"></path></g><g transform="translate(296.02 438.75)"><linearGradient id="c" x1="-1.874" x2="4.681" y1="0" y2="0" gradientUnits="objectBoundingBox" x="0" y="0"><stop offset="0%" stop-color="#6ee2f5"></stop><stop offset="100%" stop-color="#6454f0"></stop></linearGradient><path fill="url(#c)" d="M957.1866666666665 65.12L943.3166666666665 79.05000000000001Q942.2766666666664 76.13999999999999 940.4766666666665 73.82T936.4166666666665 69.89999999999998Q934.1666666666665 68.31 931.5366666666665 67.47999999999996Q928.8966666666665 66.63999999999999 926.1266666666666 66.63999999999999Q922.2366666666665 66.63999999999999 918.8066666666665 68.24000000000001Q915.3766666666666 69.82999999999998 912.8466666666666 72.71000000000004T908.8566666666666 79.54000000000002Q907.4066666666665 83.49000000000001 907.4066666666665 88.28000000000003Q907.4066666666665 92.16000000000003 908.8566666666666 95.56Q910.3166666666665 98.94999999999999 912.8466666666666 101.51999999999998Q915.3766666666666 104.07999999999998 918.8066666666665 105.53999999999996T926.1266666666666 106.99999999999994Q928.8966666666665 106.99999999999994 931.4666666666665 106.22999999999996Q934.0266666666664 105.46999999999997 936.2866666666664 104.04999999999995Q938.5366666666664 102.62999999999994 940.3066666666664 100.57999999999993Q942.0666666666664 98.5399999999999 943.1766666666665 96.0399999999999L957.0466666666664 109.9799999999999Q954.4166666666665 113.71999999999991 950.9766666666665 116.69999999999993Q947.5466666666664 119.68999999999994 943.5666666666664 121.76999999999992Q939.5766666666664 123.84999999999991 935.1766666666665 124.9199999999999Q930.7666666666664 125.9899999999999 926.1266666666664 125.9899999999999Q918.2866666666664 125.9899999999999 911.3866666666664 123.0499999999999Q904.4866666666665 120.09999999999991 899.3266666666664 114.96999999999991Q894.1566666666664 109.83999999999992 891.1766666666665 102.9799999999999Q888.1966666666665 96.1099999999999 888.1966666666665 88.27999999999992Q888.1966666666665 79.74999999999994 891.1766666666665 72.32999999999993T899.3266666666664 59.39999999999992Q904.4866666666665 53.88999999999993 911.3866666666664 50.69999999999993T926.1266666666664 47.509999999999934Q930.7666666666664 47.509999999999934 935.2466666666664 48.68999999999994Q939.7166666666665 49.85999999999996 943.7666666666664 52.11999999999995Q947.8266666666664 54.36999999999995 951.2566666666664 57.62999999999994T957.1866666666665 65.11999999999995 " transform="translate(-296.02 -438.75)"></path></g><g transform="translate(372.92 424.71)"><linearGradient id="d" x1="-2.669" x2="3.348" y1="0" y2="0" gradientUnits="objectBoundingBox" x="0" y="0"><stop offset="0%" stop-color="#6ee2f5"></stop><stop offset="100%" stop-color="#6454f0"></stop></linearGradient><path fill="url(#d)" d="M985.3366666666666 82.16999999999996V124.60999999999996H966.4066666666665V20.809999999999945H985.3366666666666V53.60999999999996Q988.7366666666665 51.039999999999964 992.3366666666666 49.96999999999997Q995.9466666666665 48.889999999999986 999.6866666666665 48.889999999999986Q1006.5566666666666 48.889999999999986 1012.5866666666666 51.49000000000001T1023.0866666666666 58.629999999999995Q1027.5666666666666 63.18000000000001 1030.1666666666665 69.24000000000001Q1032.7666666666664 75.31 1032.7666666666664 82.17000000000002V124.61000000000001H1013.6966666666665V82.17000000000002H1013.8366666666666Q1013.8366666666666 79.25999999999999 1012.7266666666665 76.66000000000003T1009.6766666666665 72.12T1005.1666666666665 69.07T999.6866666666665 67.95999999999998Q996.7066666666665 67.95999999999998 994.0766666666665 69.07Q991.4366666666665 70.18 989.4966666666664 72.12T986.4466666666665 76.66000000000003T985.3366666666665 82.17000000000002 " transform="translate(-372.92 -424.71)"></path></g><g transform="translate(466.07 440.24)"><linearGradient id="e" x1="-2.725" x2="1.486" y1="0" y2="0" gradientUnits="objectBoundingBox" x="0" y="0"><stop offset="0%" stop-color="#6ee2f5"></stop><stop offset="100%" stop-color="#6454f0"></stop></linearGradient><path fill="url(#e)" d="M1139.9566666666667 50.49000000000001V97.76999999999998Q1139.9566666666667 103.59999999999997 1137.7366666666667 108.75999999999999Q1135.5166666666667 113.93 1131.6666666666667 117.74000000000001Q1127.8266666666668 121.56 1122.6566666666668 123.78000000000003Q1117.4866666666667 125.99000000000001 1111.5966666666668 125.99000000000001Q1106.3266666666668 125.99000000000001 1101.4766666666667 124.16000000000003Q1096.6166666666668 122.32000000000005 1092.6666666666667 118.78000000000003Q1088.7866666666669 122.32000000000005 1083.9666666666667 124.16000000000003Q1079.1466666666668 125.99000000000001 1073.8066666666668 125.99000000000001Q1067.9166666666667 125.99000000000001 1062.7866666666669 123.78000000000003Q1057.6566666666668 121.56 1053.8066666666668 117.74000000000001Q1049.9566666666667 113.93 1047.7366666666667 108.75999999999999Q1045.5166666666667 103.59999999999997 1045.5166666666667 97.76999999999998V50.49000000000001H1064.4466666666667V97.76999999999998Q1064.4466666666667 99.71999999999997 1065.1766666666667 101.41999999999996Q1065.9066666666668 103.10999999999996 1067.1866666666667 104.39999999999998Q1068.4666666666667 105.67999999999995 1070.1666666666667 106.40999999999997T1073.8066666666668 107.13999999999999T1077.4866666666667 106.40999999999997Q1079.2166666666667 105.67999999999995 1080.5366666666669 104.39999999999998Q1081.8566666666668 103.10999999999996 1082.5766666666668 101.41999999999996Q1083.3066666666668 99.71999999999997 1083.3066666666668 97.76999999999998V50.49000000000001H1102.1666666666667V97.76999999999998Q1102.1666666666667 99.71999999999997 1102.9266666666667 101.41999999999996Q1103.6966666666667 103.10999999999996 1104.976666666667 104.39999999999998Q1106.2566666666667 105.67999999999995 1107.956666666667 106.40999999999997T1111.5966666666668 107.13999999999999T1115.2766666666669 106.40999999999997Q1117.006666666667 105.67999999999995 1118.2866666666669 104.39999999999998Q1119.5666666666668 103.10999999999996 1120.3366666666668 101.41999999999996Q1121.0966666666668 99.71999999999997 1121.0966666666668 97.76999999999998V50.49000000000001Z " transform="translate(-466.07 -440.24)"></path></g><g transform="translate(557.56 438.75)"><linearGradient id="f" x1="-5.371" x2="1.142" y1="0" y2="0" gradientUnits="objectBoundingBox" x="0" y="0"><stop offset="0%" stop-color="#6ee2f5"></stop><stop offset="100%" stop-color="#6454f0"></stop></linearGradient><path fill="url(#f)" d="M1218.7266666666665 63.660000000000025L1183.2266666666665 106.44000000000005Q1184.3266666666666 106.79000000000008 1185.4366666666665 106.89000000000004Q1186.5466666666666 107.00000000000006 1187.6566666666668 107.00000000000006Q1190.4366666666665 107.00000000000006 1192.9966666666667 106.23000000000008Q1195.5666666666666 105.47000000000008 1197.8166666666666 104.05000000000007T1201.8366666666666 100.58000000000004Q1203.6066666666666 98.54000000000002 1204.7166666666667 96.04000000000002L1218.5866666666666 109.98000000000002Q1215.9466666666667 113.72000000000003 1212.5166666666667 116.70000000000005Q1209.0866666666666 119.69000000000005 1205.0966666666668 121.77000000000004T1196.7066666666667 124.92000000000002T1187.6566666666668 125.99000000000001Q1179.8266666666668 125.99000000000001 1172.9266666666667 123.07999999999998T1160.8566666666666 114.96999999999997Q1155.6966666666667 109.76999999999998 1152.7166666666667 102.58999999999997Q1149.7366666666667 95.41999999999996 1149.7366666666667 86.82Q1149.7366666666667 78.00999999999999 1152.7166666666667 70.73000000000002T1160.8566666666666 58.31999999999999Q1166.0266666666666 53.19 1172.9266666666667 50.349999999999966T1187.6566666666668 47.50999999999999Q1192.3066666666668 47.50999999999999 1196.746666666667 48.620000000000005Q1201.1766666666667 49.73000000000002 1205.1666666666667 51.81T1212.6166666666668 56.89999999999998Q1216.0866666666668 59.91999999999996 1218.726666666667 63.65999999999997M1170.8766666666668 96.66999999999996L1192.9266666666667 67.40999999999997Q1191.6066666666666 66.91999999999996 1190.3266666666668 66.77999999999997T1187.6566666666668 66.63999999999999Q1183.7766666666666 66.63999999999999 1180.3466666666668 68.06Q1176.916666666667 69.49000000000001 1174.3766666666668 72.12Q1171.8466666666668 74.75999999999999 1170.3966666666668 78.45999999999998Q1168.9366666666667 82.16999999999996 1168.9366666666667 86.82Q1168.9366666666667 87.86000000000001 1169.0466666666666 89.18Q1169.1466666666668 90.49000000000001 1169.3866666666668 91.85000000000002Q1169.6366666666668 93.20000000000005 1169.976666666667 94.45000000000005Q1170.3266666666668 95.69000000000005 1170.8766666666668 96.67000000000007 " transform="translate(-557.57 -438.75)"></path></g><g transform="translate(637.95 425.4)"><linearGradient id="g" x1="-5.6" x2=".004" y1="0" y2="0" gradientUnits="objectBoundingBox" x="0" y="0"><stop offset="0%" stop-color="#6ee2f5"></stop><stop offset="100%" stop-color="#6454f0"></stop></linearGradient><path fill="url(#g)" d="M1302.5466666666666 86.82Q1302.5466666666666 95.56 1299.5666666666666 102.76999999999998T1291.4566666666665 115.13999999999999Q1286.3266666666666 120.31 1279.4266666666667 123.14999999999998T1264.6266666666666 125.98999999999995Q1256.7866666666666 125.98999999999995 1249.8866666666668 123.07999999999993T1237.8266666666668 114.96999999999991Q1232.6566666666668 109.76999999999992 1229.6766666666667 102.58999999999992Q1226.6966666666667 95.4199999999999 1226.6966666666667 86.81999999999994V20.809999999999945H1245.6966666666667V55.47999999999996Q1247.2166666666667 53.539999999999964 1249.4066666666668 52.009999999999934Q1251.5866666666666 50.48999999999995 1254.1166666666668 49.519999999999925T1259.3566666666668 48.029999999999916Q1262.0566666666668 47.509999999999934 1264.6266666666668 47.509999999999934Q1272.5266666666666 47.509999999999934 1279.4266666666667 50.44999999999993Q1286.3266666666668 53.39999999999992 1291.4566666666667 58.66999999999996T1299.5666666666666 71.11999999999995Q1302.5466666666666 78.28999999999996 1302.5466666666666 86.81999999999994M1283.4766666666667 86.81999999999994Q1283.4766666666667 82.51999999999992 1281.9866666666667 78.80999999999995T1277.9366666666667 72.39999999999992Q1275.3666666666668 69.68999999999994 1271.9366666666667 68.1699999999999Q1268.5066666666667 66.63999999999993 1264.6266666666668 66.63999999999993Q1260.7366666666667 66.63999999999993 1257.3066666666668 68.33999999999992T1251.3066666666668 72.84999999999991Q1248.746666666667 75.65999999999991 1247.2866666666669 79.2999999999999Q1245.8366666666666 82.93999999999988 1245.8366666666666 86.81999999999988Q1245.8366666666666 91.11999999999989 1247.2866666666669 94.7899999999999Q1248.746666666667 98.46999999999991 1251.3066666666668 101.1699999999999Q1253.8766666666668 103.87999999999988 1257.3066666666668 105.43999999999988T1264.6266666666668 106.99999999999989Q1268.5066666666667 106.99999999999989 1271.9366666666667 105.43999999999988T1277.9366666666667 101.1699999999999Q1280.4966666666667 98.46999999999991 1281.9866666666667 94.7899999999999Q1283.4766666666667 91.11999999999989 1283.4766666666667 86.81999999999988 " transform="translate(-637.95 -425.4)"></path></g></g><rect width="560" height="160" x="720" y="0" id="space-saver" fill="transparent" stroke="transparent"></rect></g></svg>